<svg width="511" height="126" viewBox="0 0 511 126" fill="none" xmlns="http://www.w3.org/2000/svg">
<path d="M30.6283 100.5C30.6283 106.6 35.3283 109.65 44.7283 109.65V111.75H0.77832V109.65C4.27832 109.65 6.72832 109 8.12832 107.7C9.62832 106.3 10.3783 104.4 10.3783 102V24C10.3783 21.7 9.62832 19.85 8.12832 18.45C6.72832 17.05 4.27832 16.35 0.77832 16.35V14.25H45.0283C50.3283 14.25 55.1283 14.8 59.4283 15.9C63.8283 16.9 67.5783 18.4 70.6783 20.4C73.7783 22.4 76.1783 24.95 77.8783 28.05C79.5783 31.05 80.4283 34.55 80.4283 38.55C80.4283 42.75 79.5283 46.45 77.7283 49.65C76.0283 52.85 73.6283 55.5 70.5283 57.6C67.4283 59.7 63.6783 61.3 59.2783 62.4C54.9783 63.4 50.2283 63.9 45.0283 63.9H30.6283V100.5ZM30.6283 17.4V60.6H38.5783C41.8783 60.6 44.7783 60.05 47.2783 58.95C49.8783 57.75 52.0283 56.2 53.7283 54.3C55.4283 52.3 56.6783 50 57.4783 47.4C58.3783 44.7 58.8283 41.85 58.8283 38.85C58.8283 32.55 57.1283 27.4 53.7283 23.4C50.3283 19.4 45.2783 17.4 38.5783 17.4H30.6283Z" fill="white"/>
<path d="M98.5736 67.95C98.5736 71.75 99.0236 75.6 99.9236 79.5C100.924 83.3 102.424 86.75 104.424 89.85C106.424 92.85 108.924 95.3 111.924 97.2C114.924 99.1 118.474 100.05 122.574 100.05C126.174 100.05 129.774 99.2 133.374 97.5C137.074 95.7 140.074 92.9 142.374 89.1H144.624C143.824 92.1 142.524 95.05 140.724 97.95C139.024 100.85 136.874 103.45 134.274 105.75C131.674 107.95 128.624 109.75 125.124 111.15C121.724 112.55 117.874 113.25 113.574 113.25C108.974 113.25 104.674 112.4 100.674 110.7C96.7736 109 93.3736 106.6 90.4736 103.5C87.6736 100.4 85.4736 96.65 83.8736 92.25C82.2736 87.85 81.4736 83 81.4736 77.7C81.4736 72.1 82.3736 67 84.1736 62.4C86.0736 57.7 88.5736 53.7 91.6736 50.4C94.7736 47 98.3236 44.4 102.324 42.6C106.424 40.7 110.724 39.75 115.224 39.75C123.724 39.75 130.424 42.2 135.324 47.1C140.224 52 142.674 58.95 142.674 67.95H98.5736ZM114.174 65.1C118.374 65.1 121.374 64.45 123.174 63.15C125.074 61.85 126.024 59.65 126.024 56.55C126.024 52.25 124.874 48.75 122.574 46.05C120.374 43.35 117.524 42 114.024 42C109.824 42 106.324 44.05 103.524 48.15C100.824 52.25 99.2236 57.9 98.7236 65.1H114.174Z" fill="white"/>
<path d="M155.899 55.95C155.899 51.25 153.449 48.9 148.549 48.9V46.95L174.949 39.75H175.549V55.95L175.099 60.9H175.699C176.799 54 178.849 48.75 181.849 45.15C184.849 41.55 188.599 39.75 193.099 39.75C196.499 39.75 199.249 40.8 201.349 42.9C203.449 44.9 204.499 47.75 204.499 51.45C204.499 55.65 202.499 58.9 198.499 61.2C197.399 59.8 196.099 58.6 194.599 57.6C193.099 56.5 191.149 55.95 188.749 55.95C186.149 55.95 183.649 56.6 181.249 57.9C178.949 59.2 177.049 61.25 175.549 64.05V103.8C175.549 106 176.149 107.55 177.349 108.45C178.549 109.25 180.449 109.65 183.049 109.65V111.75H148.399V109.65C150.999 109.65 152.899 109.2 154.099 108.3C155.299 107.4 155.899 105.9 155.899 103.8V55.95Z" fill="white"/>
<path d="M235.333 103.65C235.333 105.95 236.183 107.55 237.883 108.45C239.583 109.25 242.083 109.65 245.383 109.65V111.75H208.333V109.65C210.933 109.65 212.833 109.2 214.033 108.3C215.233 107.4 215.833 105.85 215.833 103.65V43.95H206.683V42C210.483 41.5 213.533 39.85 215.833 37.05C218.233 34.25 220.183 30.95 221.683 27.15C223.483 22.65 225.233 18.7 226.933 15.3C228.733 11.9 230.633 9.1 232.633 6.9C234.733 4.6 237.033 2.9 239.533 1.8C242.033 0.600001 244.933 0 248.233 0C250.133 0 251.983 0.250002 253.783 0.750008C255.583 1.25001 257.133 2.00001 258.433 3.00001C259.833 4 260.933 5.3 261.733 6.9C262.633 8.4 263.083 10.2 263.083 12.3C263.083 14.9 262.283 16.95 260.683 18.45C259.183 19.85 257.733 20.85 256.333 21.45C254.733 19.35 252.633 17.7 250.033 16.5C247.533 15.2 244.733 14.55 241.633 14.55C239.433 14.55 237.283 14.9 235.183 15.6C233.183 16.3 231.383 17.35 229.783 18.75C228.283 20.15 227.083 21.85 226.183 23.85C225.283 25.85 224.833 28.15 224.833 30.75C224.833 33.85 225.833 36.4 227.833 38.4C229.933 40.3 232.883 41.25 236.683 41.25H250.333V43.95H235.333V103.65Z" fill="white"/>
<path d="M268.203 67.95C268.203 71.75 268.653 75.6 269.553 79.5C270.553 83.3 272.053 86.75 274.053 89.85C276.053 92.85 278.553 95.3 281.553 97.2C284.553 99.1 288.103 100.05 292.203 100.05C295.803 100.05 299.403 99.2 303.003 97.5C306.703 95.7 309.703 92.9 312.003 89.1H314.253C313.453 92.1 312.153 95.05 310.353 97.95C308.653 100.85 306.503 103.45 303.903 105.75C301.303 107.95 298.253 109.75 294.753 111.15C291.353 112.55 287.503 113.25 283.203 113.25C278.603 113.25 274.303 112.4 270.303 110.7C266.403 109 263.003 106.6 260.103 103.5C257.303 100.4 255.103 96.65 253.503 92.25C251.903 87.85 251.103 83 251.103 77.7C251.103 72.1 252.003 67 253.803 62.4C255.703 57.7 258.203 53.7 261.303 50.4C264.403 47 267.953 44.4 271.953 42.6C276.053 40.7 280.353 39.75 284.853 39.75C293.353 39.75 300.053 42.2 304.953 47.1C309.853 52 312.303 58.95 312.303 67.95H268.203ZM283.803 65.1C288.003 65.1 291.003 64.45 292.803 63.15C294.703 61.85 295.653 59.65 295.653 56.55C295.653 52.25 294.503 48.75 292.203 46.05C290.003 43.35 287.153 42 283.653 42C279.453 42 275.953 44.05 273.153 48.15C270.453 52.25 268.853 57.9 268.353 65.1H283.803Z" fill="white"/>
<path d="M316.804 42C319.304 41.5 321.804 40.75 324.304 39.75C326.904 38.75 329.354 37.45 331.654 35.85C333.954 34.25 336.004 32.45 337.804 30.45C339.704 28.35 341.254 26.1 342.454 23.7H343.954V41.25H359.854V43.95H343.954V97.65C343.954 100.45 344.704 102.35 346.204 103.35C347.804 104.25 349.604 104.7 351.604 104.7C353.504 104.7 355.304 104.3 357.004 103.5C358.704 102.7 360.254 101.65 361.654 100.35L362.254 101.25C359.654 104.85 356.604 107.75 353.104 109.95C349.704 112.15 345.704 113.25 341.104 113.25C335.704 113.25 331.554 111.9 328.654 109.2C325.854 106.5 324.454 102.8 324.454 98.1V43.95H316.804V42Z" fill="white"/>
<path d="M363.679 42C366.179 41.5 368.679 40.75 371.179 39.75C373.779 38.75 376.229 37.45 378.529 35.85C380.829 34.25 382.879 32.45 384.679 30.45C386.579 28.35 388.129 26.1 389.329 23.7H390.829V41.25H406.729V43.95H390.829V97.65C390.829 100.45 391.579 102.35 393.079 103.35C394.679 104.25 396.479 104.7 398.479 104.7C400.379 104.7 402.179 104.3 403.879 103.5C405.579 102.7 407.129 101.65 408.529 100.35L409.129 101.25C406.529 104.85 403.479 107.75 399.979 109.95C396.579 112.15 392.579 113.25 387.979 113.25C382.579 113.25 378.429 111.9 375.529 109.2C372.729 106.5 371.329 102.8 371.329 98.1V43.95H363.679V42Z" fill="white"/>
<path d="M446.32 39.75C451.22 39.75 455.771 40.6 459.971 42.3C464.271 44 467.971 46.45 471.071 49.65C474.171 52.75 476.621 56.55 478.421 61.05C480.22 65.45 481.121 70.35 481.121 75.75C481.121 81.55 480.121 86.8 478.121 91.5C476.121 96.1 473.47 100 470.171 103.2C466.871 106.4 463.07 108.9 458.771 110.7C454.471 112.4 450.07 113.25 445.57 113.25C440.671 113.25 436.07 112.4 431.771 110.7C427.57 109 423.921 106.6 420.82 103.5C417.72 100.3 415.271 96.5 413.471 92.1C411.671 87.6 410.771 82.65 410.771 77.25C410.771 71.45 411.771 66.25 413.771 61.65C415.771 57.05 418.421 53.15 421.721 49.95C425.021 46.65 428.821 44.15 433.121 42.45C437.421 40.65 441.82 39.75 446.32 39.75ZM445.57 111C449.97 111 453.471 108.25 456.071 102.75C458.671 97.15 459.971 88.9 459.971 78C459.971 72.6 459.671 67.7 459.07 63.3C458.47 58.8 457.571 55 456.371 51.9C455.271 48.7 453.871 46.25 452.171 44.55C450.47 42.85 448.521 42 446.32 42C441.921 42 438.421 44.8 435.82 50.4C433.22 55.9 431.921 64.1 431.921 75C431.921 80.4 432.22 85.35 432.82 89.85C433.421 94.25 434.271 98.05 435.371 101.25C436.571 104.35 438.021 106.75 439.721 108.45C441.421 110.15 443.37 111 445.57 111Z" fill="white"/>
<path d="M488.889 101.55C488.889 98.65 489.939 96.35 492.039 94.65C494.139 92.85 496.639 91.95 499.539 91.95C502.539 91.95 505.039 93 507.039 95.1C509.139 97.1 510.189 99.9 510.189 103.5C510.189 106.4 509.489 109.15 508.089 111.75C506.689 114.25 504.839 116.45 502.539 118.35C500.339 120.25 497.889 121.8 495.189 123C492.489 124.3 489.789 125.1 487.089 125.4V124.35C488.389 124.05 489.689 123.65 490.989 123.15C492.289 122.65 493.439 122 494.439 121.2C495.539 120.5 496.439 119.65 497.139 118.65C497.839 117.75 498.189 116.7 498.189 115.5C498.189 114.1 497.689 112.95 496.689 112.05C495.789 111.15 494.739 110.25 493.539 109.35C492.339 108.45 491.239 107.4 490.239 106.2C489.339 105 488.889 103.45 488.889 101.55Z" fill="white"/>
</svg>
