<svg width="510" height="125" viewBox="0 0 510 125" fill="none" xmlns="http://www.w3.org/2000/svg">
<path d="M29.8845 100.179C29.8845 106.26 34.59 109.3 44.0009 109.3V111.394H0V109.3C3.50405 109.3 5.95689 108.652 7.35851 107.356C8.86024 105.961 9.61111 104.067 9.61111 101.675V23.9234C9.61111 21.6308 8.86024 19.7867 7.35851 18.3912C5.95689 16.9956 3.50405 16.2979 0 16.2979V14.2045H44.3012C49.6073 14.2045 54.4129 14.7528 58.7179 15.8493C63.123 16.8461 66.8773 18.3413 69.9809 20.3349C73.0845 22.3286 75.4873 24.8704 77.1892 27.9605C78.8912 30.951 79.7422 34.4398 79.7422 38.427C79.7422 42.6136 78.8411 46.3018 77.039 49.4916C75.3371 52.6814 72.9343 55.323 69.8307 57.4163C66.7271 59.5096 62.9728 61.1045 58.5677 62.201C54.2627 63.1978 49.5072 63.6962 44.3012 63.6962H29.8845V100.179ZM29.8845 17.3445V60.4067H37.8437C41.1476 60.4067 44.0509 59.8585 46.5538 58.762C49.1568 57.5658 51.3093 56.0207 53.0113 54.1268C54.7132 52.1332 55.9647 49.8405 56.7656 47.2488C57.6667 44.5574 58.1172 41.7165 58.1172 38.7261C58.1172 32.4462 56.4152 27.3126 53.0113 23.3254C49.6073 19.3381 44.5515 17.3445 37.8437 17.3445H29.8845Z" fill="#0C2340"/>
<path d="M97.9085 67.7333C97.9085 71.5211 98.359 75.3589 99.26 79.2464C100.261 83.0343 101.763 86.4733 103.765 89.5634C105.768 92.5538 108.27 94.996 111.274 96.89C114.277 98.7839 117.832 99.7309 121.936 99.7309C125.54 99.7309 129.145 98.8836 132.749 97.189C136.453 95.3947 139.457 92.6037 141.759 88.8158H144.012C143.211 91.8062 141.909 94.7468 140.107 97.6376C138.405 100.528 136.253 103.12 133.65 105.413C131.047 107.606 127.993 109.4 124.489 110.795C121.085 112.191 117.231 112.889 112.926 112.889C108.321 112.889 104.016 112.041 100.011 110.347C96.1064 108.652 92.7025 106.26 89.7991 103.17C86.9959 100.08 84.7933 96.3417 83.1915 91.9557C81.5896 87.5698 80.7887 82.7353 80.7887 77.4522C80.7887 71.87 81.6897 66.7863 83.4918 62.201C85.394 57.5159 87.8969 53.5287 91.0005 50.2392C94.1041 46.8501 97.6582 44.2584 101.663 42.4641C105.768 40.5702 110.073 39.6232 114.578 39.6232C123.088 39.6232 129.795 42.0654 134.701 46.9498C139.607 51.8341 142.06 58.762 142.06 67.7333H97.9085ZM113.527 64.8923C117.731 64.8923 120.735 64.2444 122.537 62.9486C124.439 61.6527 125.39 59.4597 125.39 56.3696C125.39 52.0833 124.239 48.5945 121.936 45.9031C119.734 43.2117 116.88 41.866 113.376 41.866C109.172 41.866 105.667 43.9095 102.864 47.9964C100.161 52.0833 98.5592 57.7153 98.0587 64.8923H113.527Z" fill="#0C2340"/>
<path d="M155.301 55.7715C155.301 51.0865 152.848 48.744 147.942 48.744V46.8002L174.373 39.6232H174.973V55.7715L174.523 60.7057H175.124C176.225 53.8278 178.277 48.5945 181.281 45.006C184.284 41.4175 188.038 39.6232 192.544 39.6232C195.948 39.6232 198.701 40.6699 200.803 42.7632C202.906 44.7568 203.957 47.5977 203.957 51.2859C203.957 55.4725 201.955 58.7121 197.95 61.0048C196.849 59.6093 195.547 58.4131 194.045 57.4163C192.544 56.3198 190.591 55.7715 188.189 55.7715C185.586 55.7715 183.083 56.4195 180.68 57.7153C178.377 59.0112 176.475 61.0546 174.973 63.8457V103.469C174.973 105.662 175.574 107.207 176.775 108.104C177.977 108.902 179.879 109.3 182.482 109.3V111.394H147.792V109.3C150.395 109.3 152.297 108.852 153.499 107.955C154.7 107.057 155.301 105.562 155.301 103.469V55.7715Z" fill="#0C2340"/>
<path d="M234.826 103.319C234.826 105.612 235.677 107.207 237.379 108.104C239.081 108.902 241.584 109.3 244.887 109.3V111.394H207.794V109.3C210.397 109.3 212.3 108.852 213.501 107.955C214.702 107.057 215.303 105.512 215.303 103.319V43.8098H206.143V41.866C209.947 41.3676 213 39.7229 215.303 36.9318C217.706 34.1408 219.658 30.8513 221.16 27.0634C222.962 22.5778 224.714 18.6404 226.416 15.2512C228.218 11.862 230.12 9.07097 232.123 6.87799C234.225 4.58533 236.528 2.89075 239.031 1.79426C241.533 0.598087 244.437 0 247.741 0C249.643 0 251.495 0.249205 253.297 0.747615C255.099 1.24602 256.651 1.99363 257.952 2.99044C259.354 3.98725 260.455 5.2831 261.256 6.87799C262.157 8.37321 262.608 10.1675 262.608 12.2608C262.608 14.8525 261.807 16.8959 260.205 18.3912C258.703 19.7867 257.252 20.7835 255.85 21.3816C254.248 19.2883 252.146 17.6435 249.543 16.4474C247.04 15.1515 244.237 14.5036 241.133 14.5036C238.93 14.5036 236.778 14.8525 234.676 15.5502C232.673 16.248 230.871 17.2947 229.269 18.6902C227.768 20.0857 226.566 21.7803 225.665 23.7739C224.764 25.7675 224.314 28.0602 224.314 30.6519C224.314 33.742 225.315 36.2839 227.317 38.2775C229.419 40.1715 232.373 41.1184 236.177 41.1184H249.843V43.8098H234.826V103.319Z" fill="#0C2340"/>
<path d="M267.734 67.7333C267.734 71.5211 268.184 75.3589 269.085 79.2464C270.086 83.0343 271.588 86.4733 273.59 89.5634C275.593 92.5538 278.096 94.996 281.099 96.89C284.103 98.7839 287.657 99.7309 291.761 99.7309C295.366 99.7309 298.97 98.8836 302.574 97.189C306.278 95.3947 309.282 92.6037 311.584 88.8158H313.837C313.036 91.8062 311.735 94.7468 309.932 97.6376C308.23 100.528 306.078 103.12 303.475 105.413C300.872 107.606 297.818 109.4 294.314 110.795C290.91 112.191 287.056 112.889 282.751 112.889C278.146 112.889 273.841 112.041 269.836 110.347C265.932 108.652 262.528 106.26 259.624 103.17C256.821 100.08 254.619 96.3417 253.017 91.9557C251.415 87.5698 250.614 82.7353 250.614 77.4522C250.614 71.87 251.515 66.7863 253.317 62.201C255.219 57.5159 257.722 53.5287 260.826 50.2392C263.929 46.8501 267.483 44.2584 271.488 42.4641C275.593 40.5702 279.898 39.6232 284.403 39.6232C292.913 39.6232 299.621 42.0654 304.526 46.9498C309.432 51.8341 311.885 58.762 311.885 67.7333H267.734ZM283.352 64.8923C287.557 64.8923 290.56 64.2444 292.362 62.9486C294.264 61.6527 295.215 59.4597 295.215 56.3696C295.215 52.0833 294.064 48.5945 291.761 45.9031C289.559 43.2117 286.706 41.866 283.202 41.866C278.997 41.866 275.493 43.9095 272.689 47.9964C269.986 52.0833 268.384 57.7153 267.884 64.8923H283.352Z" fill="#0C2340"/>
<path d="M316.391 41.866C318.894 41.3676 321.397 40.62 323.9 39.6232C326.503 38.6264 328.956 37.3306 331.258 35.7357C333.561 34.1408 335.613 32.3465 337.415 30.3529C339.318 28.2596 340.869 26.0168 342.071 23.6244H343.573V41.1184H359.491V43.8098H343.573V97.3385C343.573 100.13 344.323 102.024 345.825 103.02C347.427 103.917 349.229 104.366 351.231 104.366C353.134 104.366 354.936 103.967 356.638 103.17C358.34 102.372 359.891 101.326 361.293 100.03L361.894 100.927C359.291 104.516 356.237 107.406 352.733 109.599C349.329 111.792 345.325 112.889 340.719 112.889C335.313 112.889 331.158 111.543 328.255 108.852C325.452 106.16 324.05 102.472 324.05 97.7871V43.8098H316.391V41.866Z" fill="#0C2340"/>
<path d="M363.32 41.866C365.823 41.3676 368.326 40.62 370.829 39.6232C373.432 38.6264 375.885 37.3306 378.188 35.7357C380.49 34.1408 382.543 32.3465 384.345 30.3529C386.247 28.2596 387.799 26.0168 389 23.6244H390.502V41.1184H406.42V43.8098H390.502V97.3385C390.502 100.13 391.253 102.024 392.754 103.02C394.356 103.917 396.158 104.366 398.161 104.366C400.063 104.366 401.865 103.967 403.567 103.17C405.269 102.372 406.821 101.326 408.222 100.03L408.823 100.927C406.22 104.516 403.166 107.406 399.662 109.599C396.258 111.792 392.254 112.889 387.648 112.889C382.242 112.889 378.087 111.543 375.184 108.852C372.381 106.16 370.979 102.472 370.979 97.7871V43.8098H363.32V41.866Z" fill="#0C2340"/>
<path d="M446.058 39.6232C450.963 39.6232 455.519 40.4705 459.724 42.1651C464.029 43.8597 467.733 46.3018 470.836 49.4916C473.94 52.5817 476.393 56.3696 478.195 60.8553C479.997 65.2412 480.898 70.1256 480.898 75.5084C480.898 81.2899 479.897 86.5231 477.895 91.2081C475.892 95.7935 473.239 99.681 469.935 102.871C466.632 106.061 462.827 108.553 458.522 110.347C454.217 112.041 449.812 112.889 445.307 112.889C440.401 112.889 435.796 112.041 431.491 110.347C427.286 108.652 423.632 106.26 420.528 103.17C417.425 99.9801 414.972 96.1922 413.17 91.8062C411.368 87.3206 410.467 82.3864 410.467 77.0036C410.467 71.2221 411.468 66.0387 413.47 61.4534C415.472 56.868 418.125 52.9805 421.429 49.7907C424.733 46.5012 428.538 44.0092 432.842 42.3146C437.147 40.5203 441.553 39.6232 446.058 39.6232ZM445.307 110.646C449.712 110.646 453.216 107.905 455.819 102.422C458.422 96.8401 459.724 88.6164 459.724 77.7512C459.724 72.3684 459.423 67.4841 458.823 63.0981C458.222 58.6124 457.321 54.8246 456.119 51.7345C455.018 48.5447 453.616 46.1025 451.915 44.4079C450.213 42.7133 448.26 41.866 446.058 41.866C441.653 41.866 438.149 44.6571 435.546 50.2392C432.943 55.7217 431.641 63.8955 431.641 74.7608C431.641 80.1435 431.941 85.0778 432.542 89.5634C433.143 93.9494 433.994 97.7372 435.095 100.927C436.296 104.017 437.748 106.409 439.45 108.104C441.152 109.799 443.104 110.646 445.307 110.646Z" fill="#0C2340"/>
<path d="M488.675 101.226C488.675 98.3353 489.727 96.0427 491.829 94.3481C493.931 92.5538 496.434 91.6567 499.338 91.6567C502.341 91.6567 504.844 92.7034 506.846 94.7967C508.949 96.7903 510 99.5813 510 103.17C510 106.061 509.299 108.802 507.898 111.394C506.496 113.886 504.644 116.079 502.341 117.973C500.139 119.866 497.686 121.411 494.983 122.608C492.28 123.904 489.576 124.701 486.873 125V123.953C488.175 123.654 489.476 123.256 490.778 122.757C492.079 122.259 493.231 121.611 494.232 120.813C495.333 120.116 496.234 119.268 496.935 118.272C497.636 117.374 497.986 116.328 497.986 115.132C497.986 113.736 497.486 112.59 496.484 111.693C495.583 110.795 494.532 109.898 493.331 109.001C492.129 108.104 491.028 107.057 490.027 105.861C489.126 104.665 488.675 103.12 488.675 101.226Z" fill="#0C2340"/>
</svg>
