<svg width="48" height="48" viewBox="0 0 48 48" fill="none" xmlns="http://www.w3.org/2000/svg">
<path d="M26.1 34.2851C29.4 28.3615 29.7 20.7338 29.625 17.7314H7.125C7.125 20.815 7.575 28.4427 10.95 34.2851H26.1Z" fill="#0C2340"/>
<path d="M26.1 34.2851C29.4 28.3615 29.7 20.7338 29.625 17.7314H7.125C7.125 20.815 7.575 28.4427 10.95 34.2851H26.1Z" fill="#0C2340"/>
<path d="M28.2004 39.722H8.70037C8.47537 39.722 8.25037 39.6408 8.10037 39.5597C7.87537 39.4785 7.72537 39.3162 7.65037 39.0728C0.000369549 27.2256 2.70037 10.9965 2.77537 10.2662C2.85037 9.86044 3.07537 9.53586 3.37537 9.29242C3.67537 9.04898 4.12537 8.96784 4.42537 9.04898C4.80037 9.13013 5.10037 9.37357 5.32537 9.69815C5.55037 10.0227 5.62537 10.4285 5.55037 10.8342C5.55037 10.9965 3.07537 25.9272 9.52537 36.6384H27.4504C33.9754 25.9272 31.5004 10.9965 31.4254 10.8342C31.3504 10.4285 31.5004 10.0227 31.6504 9.77929C31.8754 9.45471 32.1754 9.21128 32.5504 9.21128C32.9254 9.13013 33.3004 9.21128 33.6004 9.45471C33.9004 9.69815 34.1254 10.0227 34.2004 10.3473C34.3504 11.0776 37.0504 27.3067 29.4004 39.154C29.2504 39.3162 29.1004 39.5597 28.8754 39.6408C28.6504 39.6408 28.4254 39.722 28.2004 39.722Z" fill="#0C2340"/>
<path d="M38.3251 26.4141H37.9501C37.5751 26.4141 37.2001 26.2518 36.9751 25.9272C36.7501 25.6026 36.5251 25.278 36.5251 24.8723C36.5251 24.4666 36.6751 24.0608 36.9751 23.8174C37.2751 23.574 37.5751 23.3305 37.9501 23.3305H38.4001C39.0001 23.3305 39.6751 23.2494 40.2751 23.0059C40.8751 22.7625 41.4001 22.3568 41.8501 21.8699C42.3001 21.383 42.6751 20.815 42.9001 20.1659C43.1251 19.5167 43.2751 18.8675 43.2751 18.1372C43.2751 17.4069 43.1251 16.7577 42.9001 16.1086C42.6751 15.4594 42.3001 14.8914 41.8501 14.4045C41.4001 13.9177 40.8751 13.5119 40.2751 13.2685C39.6751 13.1062 39.0001 13.0251 38.4001 13.0251H37.9501C37.5751 13.0251 37.2001 12.8628 36.9751 12.5382C36.6751 12.2947 36.5251 11.889 36.5251 11.4833C36.5251 11.0776 36.6751 10.6718 36.9751 10.4284C37.2751 10.185 37.5751 9.94153 37.9501 9.94153H38.4001C40.3501 10.0227 42.2251 10.9153 43.5751 12.457C44.9251 13.9988 45.6751 16.0274 45.6751 18.1372C45.6751 20.247 44.9251 22.3568 43.5751 23.8174C42.2251 25.4403 40.3501 26.3329 38.3251 26.4141Z" fill="#0C2340"/>
<path d="M29.475 12.9438H7.35L7.125 15.3782H29.625L29.475 12.9438Z" fill="#0C2340"/>
</svg>
