<svg width="48" height="48" viewBox="0 0 48 48" fill="none" xmlns="http://www.w3.org/2000/svg">
<path d="M26.1 33.5351C29.4 27.6115 29.7 19.9838 29.625 16.9814H7.125C7.125 20.065 7.575 27.6926 10.95 33.5351H26.1Z" fill="#0C2340"/>
<path d="M26.1 33.5351C29.4 27.6115 29.7 19.9838 29.625 16.9814H7.125C7.125 20.065 7.575 27.6926 10.95 33.5351H26.1Z" fill="#0C2340"/>
<path d="M28.2003 38.972H8.70031C8.47531 38.972 8.25031 38.8908 8.10031 38.8097C7.87531 38.7285 7.72531 38.5662 7.65031 38.3228C0.000308514 26.4756 2.70031 10.2465 2.77531 9.51617C2.85031 9.11044 3.07531 8.78586 3.37531 8.54242C3.67531 8.29898 4.12531 8.21784 4.42531 8.29898C4.80031 8.38013 5.10031 8.62357 5.32531 8.94815C5.55031 9.27273 5.62531 9.67846 5.55031 10.0842C5.55031 10.2465 3.07531 25.1772 9.52531 35.8884H27.4503C33.9753 25.1772 31.5003 10.2465 31.4253 10.0842C31.3503 9.67846 31.5003 9.27273 31.6503 9.02929C31.8753 8.70471 32.1753 8.46128 32.5503 8.46128C32.9253 8.38013 33.3003 8.46128 33.6003 8.70471C33.9003 8.94815 34.1253 9.27273 34.2003 9.59731C34.3503 10.3276 37.0503 26.5567 29.4003 38.404C29.2503 38.5662 29.1003 38.8097 28.8753 38.8908C28.6503 38.8908 28.4253 38.972 28.2003 38.972Z" fill="#0C2340"/>
<path d="M38.3251 25.6641H37.9501C37.5751 25.6641 37.2001 25.5018 36.9751 25.1772C36.7501 24.8526 36.5251 24.528 36.5251 24.1223C36.5251 23.7166 36.6751 23.3108 36.9751 23.0674C37.2751 22.824 37.5751 22.5805 37.9501 22.5805H38.4001C39.0001 22.5805 39.6751 22.4994 40.2751 22.2559C40.8751 22.0125 41.4001 21.6068 41.8501 21.1199C42.3001 20.633 42.6751 20.065 42.9001 19.4159C43.1251 18.7667 43.2751 18.1175 43.2751 17.3872C43.2751 16.6569 43.1251 16.0077 42.9001 15.3586C42.6751 14.7094 42.3001 14.1414 41.8501 13.6545C41.4001 13.1677 40.8751 12.7619 40.2751 12.5185C39.6751 12.3562 39.0001 12.2751 38.4001 12.2751H37.9501C37.5751 12.2751 37.2001 12.1128 36.9751 11.7882C36.6751 11.5447 36.5251 11.139 36.5251 10.7333C36.5251 10.3276 36.6751 9.92184 36.9751 9.6784C37.2751 9.43496 37.5751 9.19153 37.9501 9.19153H38.4001C40.3501 9.27267 42.2251 10.1653 43.5751 11.707C44.9251 13.2488 45.6751 15.2774 45.6751 17.3872C45.6751 19.497 44.9251 21.6068 43.5751 23.0674C42.2251 24.6903 40.3501 25.5829 38.3251 25.6641Z" fill="#0C2340"/>
<path fill-rule="evenodd" clip-rule="evenodd" d="M16.4843 22.9536C17.4753 21.3765 19.0969 20.8434 20.25 21.6653L16.4483 27.7739C15.5113 26.6188 15.5113 24.553 16.4843 22.9536ZM17.25 28.2023L21.0461 22.0937C21.9816 23.2488 21.9996 25.3368 21.0101 26.9139C20.0206 28.491 18.4014 29.0241 17.25 28.2023Z" fill="white"/>
</svg>
