<svg width="48" height="48" viewBox="0 0 48 48" fill="none" xmlns="http://www.w3.org/2000/svg">
<path d="M26.8411 34.2061C30.1475 28.7392 30.4577 21.6557 30.3661 18.8833H7.90527C7.90527 21.7195 8.32826 28.8101 11.7474 34.199L26.8411 34.2061Z" fill="#0C2340"/>
<path d="M28.9703 39.2476H9.50569C9.28618 39.2413 9.07117 39.1836 8.87778 39.0789C8.6844 38.9743 8.51799 38.8257 8.39181 38.6449C0.714536 27.7041 3.45692 12.6862 3.55562 12.0481C3.62574 11.6785 3.83893 11.3522 4.1483 11.1407C4.45767 10.9293 4.83788 10.8501 5.20528 10.9207C5.57269 10.9912 5.89719 11.2056 6.1074 11.5168C6.31762 11.8279 6.39632 12.2103 6.32621 12.5799C6.32621 12.7217 3.81647 26.5058 10.2812 36.4114H28.2301C34.7089 26.4845 32.2132 12.7217 32.1921 12.5799C32.1484 12.2228 32.2413 11.8624 32.452 11.5717C32.6626 11.2809 32.9752 11.0816 33.3265 11.014C33.6778 10.9464 34.0416 11.0156 34.344 11.2076C34.6465 11.3996 34.8651 11.7 34.9556 12.0481C35.0754 12.6862 37.7755 27.7041 30.1265 38.6449C29.9961 38.8315 29.823 38.9836 29.6217 39.0886C29.4204 39.1935 29.197 39.248 28.9703 39.2476Z" fill="#0C2340"/>
<path d="M39.1007 26.91H38.7059C38.3319 26.91 37.9733 26.7606 37.7089 26.4946C37.4444 26.2287 37.2959 25.868 37.2959 25.4918C37.2959 25.1157 37.4444 24.755 37.7089 24.4891C37.9733 24.2231 38.3319 24.0737 38.7059 24.0737H39.1289C39.764 24.0984 40.3976 23.9939 40.9917 23.7665C41.5857 23.539 42.128 23.1933 42.5861 22.7501C43.0442 22.3068 43.4086 21.7752 43.6575 21.1869C43.9064 20.5986 44.0347 19.9659 44.0347 19.3266C44.0347 18.6872 43.9064 18.0545 43.6575 17.4662C43.4086 16.878 43.0442 16.3463 42.5861 15.903C42.128 15.4598 41.5857 15.1141 40.9917 14.8867C40.3976 14.6592 39.764 14.5547 39.1289 14.5794H38.7059C38.3319 14.5794 37.9733 14.43 37.7089 14.164C37.4444 13.8981 37.2959 13.5374 37.2959 13.1613C37.2959 12.7852 37.4444 12.4245 37.7089 12.1585C37.9733 11.8926 38.3319 11.7432 38.7059 11.7432H39.1289C41.0886 11.8034 42.9481 12.6288 44.3131 14.0444C45.6782 15.46 46.4416 17.3545 46.4416 19.3266C46.4416 21.2986 45.6782 23.1931 44.3131 24.6087C42.9481 26.0243 41.0886 26.8497 39.1289 26.91H39.1007Z" fill="#0C2340"/>
<path d="M19.0513 5C18.4848 5.00058 17.9199 5.06239 17.3664 5.18436L7.7998 14.8063C8.01335 15.4908 8.47686 16.0685 9.09698 16.423L20.3767 5.11345C19.9388 5.03922 19.4955 5.00127 19.0513 5Z" fill="#0C2340"/>
<path d="M27.1723 7.97088C26.4305 7.64748 25.6433 7.44177 24.8388 7.36108L15.4414 16.8129H18.3741L27.1723 7.97088Z" fill="#0C2340"/>
<path d="M21.8571 5.51758L10.6338 16.8058H13.5595L23.7535 6.5599C23.1737 6.12386 22.5352 5.77291 21.8571 5.51758Z" fill="#0C2340"/>
<path d="M25.0781 16.8129H27.4257C28.1529 16.8477 28.8672 16.6105 29.4309 16.147C29.9945 15.6835 30.3677 15.0266 30.4783 14.3028C30.5862 13.3935 30.507 12.4715 30.2457 11.5942L25.0781 16.8129Z" fill="#0C2340"/>
<path d="M29.7248 10.2826C29.5646 10.0148 29.3855 9.7589 29.189 9.51681C28.9412 9.21793 28.6596 8.94905 28.3501 8.71558L20.2568 16.813H23.1966L29.7248 10.2826Z" fill="#0C2340"/>
<path d="M13.3262 7.36108C12.4952 7.40827 11.6817 7.62054 10.9327 7.98565C10.1837 8.35075 9.514 8.86145 8.9623 9.48826C8.13161 10.5171 7.66308 11.7937 7.62988 13.1187L13.3262 7.36108Z" fill="#0C2340"/>
</svg>
