<svg width="48" height="48" viewBox="0 0 48 48" fill="none" xmlns="http://www.w3.org/2000/svg">
<path d="M8.58885 10.9575C9.72997 10.4692 10.9089 10.0755 12.1138 9.78043V9.81589C14.6064 9.22426 17.1795 9.05412 19.7276 9.31245C22.8436 9.72371 25.0291 11.1631 23.2525 12.957C22.6121 13.493 21.8674 13.8885 21.0661 14.1181C20.2649 14.3476 19.4247 14.4062 18.5996 14.2901C18.1484 14.1695 17.8946 13.971 18.0004 13.6874C18.1555 13.113 16.8019 13.0988 15.8361 13.347C13.5942 13.9781 13.3545 15.2473 14.2076 15.9918C15.9418 17.3036 20.0307 17.1192 23.316 16.0698C28.0676 14.4531 29.6608 11.8154 28.0535 9.83007C25.6565 7.28454 18.9521 6.84492 12.6778 8.31977C11.0699 8.55873 9.49296 8.97485 7.97552 9.56062C7.8768 9.59367 7.78586 9.64672 7.70831 9.7165C7.63077 9.78627 7.56827 9.87129 7.52467 9.96631C7.48107 10.0613 7.45729 10.1643 7.45481 10.2689C7.45232 10.3736 7.47119 10.4776 7.51023 10.5746C7.61093 10.7614 7.777 10.9041 7.97628 10.9748C8.17556 11.0455 8.39385 11.0394 8.58885 10.9575Z" fill="#0C2340"/>
<path d="M8.77925 40.7735H28.2439C28.4694 40.7728 28.6914 40.7176 28.8913 40.6128C29.0913 40.5079 29.2633 40.3563 29.393 40.1708C37.0703 29.23 34.3279 14.2121 34.2292 13.5739C34.1575 13.2071 33.9446 12.8837 33.637 12.6739C33.3294 12.4641 32.9519 12.3849 32.5866 12.4536C32.2206 12.5241 31.8972 12.7375 31.6872 13.0471C31.4772 13.3566 31.3975 13.7372 31.4656 14.1057C31.4656 14.2475 33.9824 28.0033 27.5036 37.9372H9.52654C3.05479 28.0104 5.53633 14.2475 5.55748 14.1057C5.58176 13.7598 5.47914 13.4168 5.26903 13.1418C5.05893 12.8668 4.75591 12.6788 4.41728 12.6133C4.07865 12.5478 3.7279 12.6094 3.43137 12.7864C3.13483 12.9634 2.91308 13.2436 2.80804 13.5739C2.68819 14.2121 -0.0118923 29.23 7.64423 40.1708C7.77251 40.3544 7.94229 40.5048 8.1396 40.6095C8.33692 40.7143 8.55614 40.7705 8.77925 40.7735Z" fill="#0C2340"/>
<path d="M38.3745 13.269H37.9515C37.5775 13.269 37.2189 13.4185 36.9545 13.6844C36.6901 13.9504 36.5415 14.3111 36.5415 14.6872C36.5415 15.0633 36.6901 15.424 36.9545 15.6899C37.2189 15.9559 37.5775 16.1053 37.9515 16.1053H38.3745C39.0096 16.0806 39.6432 16.1851 40.2373 16.4125C40.8313 16.64 41.3736 16.9857 41.8317 17.4289C42.2898 17.8722 42.6542 18.4039 42.9031 18.9921C43.152 19.5804 43.2803 20.2131 43.2803 20.8524C43.2803 21.4918 43.152 22.1245 42.9031 22.7128C42.6542 23.301 42.2898 23.8327 41.8317 24.276C41.3736 24.7192 40.8313 25.0649 40.2373 25.2924C39.6432 25.5198 39.0096 25.6243 38.3745 25.5996H37.9515C37.5775 25.5996 37.2189 25.749 36.9545 26.015C36.6901 26.2809 36.5415 26.6416 36.5415 27.0177C36.5415 27.3938 36.6901 27.7545 36.9545 28.0205C37.2189 28.2864 37.5775 28.4358 37.9515 28.4358H38.3745C40.3342 28.3756 42.1937 27.5502 43.5587 26.1346C44.9238 24.719 45.6872 22.8245 45.6872 20.8524C45.6872 18.8804 44.9238 16.9859 43.5587 15.5703C42.1937 14.1547 40.3342 13.3293 38.3745 13.269Z" fill="#0C2340"/>
<path d="M26.1502 35.7321C29.4566 30.2652 29.7597 23.1817 29.6751 20.4093H7.20728C7.20728 23.2455 7.63026 30.3361 11.0494 35.725L26.1502 35.7321Z" fill="#0C2340"/>
</svg>
